<?xml version="1.0" standalone="no"?>
<!DOCTYPE svg PUBLIC "-//W3C//DTD SVG 20010904//EN"
 "http://www.w3.org/TR/2001/REC-SVG-20010904/DTD/svg10.dtd">
<svg version="1.0" xmlns="http://www.w3.org/2000/svg"
 width="1280.000000pt" height="640.000000pt" viewBox="0 0 1280.000000 640.000000"
 preserveAspectRatio="xMidYMid meet">
<metadata>
Created by potrace 1.15, written by Peter Selinger 2001-2017
</metadata>
<g transform="translate(0.000000,640.000000) scale(0.100000,-0.100000)"
fill="#000000" stroke="none">
<path d="M11790 4858 c-245 -51 -500 -179 -673 -338 l-68 -63 -117 5 c-159 8
-172 1 -172 -86 0 -56 3 -66 23 -79 13 -8 36 -17 51 -19 26 -3 16 -15 -146
-179 -286 -291 -494 -453 -711 -559 -205 -99 -347 -130 -592 -130 l-165 0 0
-55 c0 -48 2 -55 20 -55 11 0 20 -7 20 -15 0 -12 -22 -14 -152 -10 -84 3 -450
7 -813 10 -363 3 -734 10 -824 16 -160 10 -166 12 -197 39 -18 15 -46 31 -63
35 -35 7 -93 -9 -112 -31 -8 -9 -23 -13 -43 -9 -33 5 -386 29 -681 45 -564 32
-1357 31 -1770 0 -160 -13 -435 -24 -435 -19 0 2 7 29 15 59 21 79 21 82 -22
78 -35 -3 -37 -6 -60 -68 -14 -36 -29 -69 -34 -75 -6 -6 -25 7 -53 34 -52 51
-104 65 -309 81 -72 6 -163 15 -202 20 -94 13 -271 12 -375 -1 -110 -13 -184
-32 -295 -76 -80 -31 -126 -62 -425 -287 -289 -216 -345 -255 -410 -278 -41
-15 -76 -28 -78 -28 -2 0 -2 34 0 75 2 62 0 75 -12 75 -12 0 -14 -14 -12 -79
l3 -79 -67 -22 c-61 -21 -68 -21 -76 -6 -13 23 -26 20 -42 -12 -19 -38 -103
-68 -211 -77 -129 -10 -232 -24 -365 -50 -69 -14 -352 -56 -630 -95 -277 -39
-506 -73 -509 -76 -2 -2 -2 -6 1 -9 3 -3 236 21 519 55 536 63 673 72 667 45
-2 -9 -60 -40 -138 -74 -279 -120 -627 -306 -599 -321 8 -4 68 -19 134 -33
434 -93 905 -161 1520 -220 l130 -12 3 -62 c3 -59 4 -63 27 -63 24 0 25 3 25
60 0 51 3 60 18 60 9 0 78 -5 154 -10 161 -12 659 -40 705 -40 l32 0 3 -87 3
-88 53 -3 52 -3 0 87 0 87 213 -7 c116 -3 363 -11 547 -16 184 -6 403 -13 487
-16 l152 -6 -20 -21 c-15 -16 -19 -33 -17 -66 5 -77 11 -79 324 -87 l272 -7
15 -32 16 -33 228 -8 c328 -11 934 -9 1098 5 460 38 759 119 898 241 38 34 47
48 47 75 0 19 3 36 8 38 4 3 77 10 162 16 239 18 468 39 660 63 129 15 244 21
440 23 284 2 327 7 552 65 183 47 283 62 368 55 125 -10 125 -10 148 -66 19
-44 24 -49 53 -49 26 0 30 3 24 18 -18 45 -27 73 -23 77 2 2 49 0 103 -5 129
-11 315 -27 485 -40 74 -6 187 -15 250 -20 63 -5 203 -15 310 -21 174 -10 202
-10 260 5 153 39 212 105 240 265 18 110 53 296 55 299 2 2 31 -2 66 -8 67
-12 289 -4 289 10 0 4 -36 66 -80 136 l-80 129 248 6 c241 6 291 12 385 48 16
6 42 11 58 11 l29 0 0 115 0 115 -33 0 c-18 0 -56 6 -83 14 -101 30 -225 46
-429 56 -115 5 -225 10 -242 10 -30 0 -32 2 -28 28 3 15 18 124 34 242 16 118
48 350 71 515 22 165 58 425 78 578 l38 277 -76 -1 c-41 -1 -95 -5 -120 -11z
m-8427 -1375 c-29 -2 -78 -2 -110 0 -32 2 -8 3 52 3 61 0 87 -1 58 -3z m-248
-14 c-51 -10 -92 -10 -50 1 17 4 44 8 60 8 25 0 24 -2 -10 -9z m465 2 c33 -6
37 -9 15 -9 -16 0 -50 3 -75 7 -33 6 -37 9 -15 9 17 0 50 -3 75 -7z m-575 -21
c-11 -5 -27 -9 -35 -9 -9 0 -8 4 5 9 11 5 27 9 35 9 9 0 8 -4 -5 -9z m638 -88
c-20 -51 -38 -90 -40 -88 -2 2 13 45 33 95 20 51 38 90 40 88 2 -2 -13 -45
-33 -95z m-713 68 c-8 -5 -22 -9 -30 -9 -10 0 -8 3 5 9 27 12 43 12 25 0z
m-60 -20 c-8 -5 -19 -10 -25 -10 -5 0 -3 5 5 10 8 5 20 10 25 10 6 0 3 -5 -5
-10z m-65 -80 c14 -27 23 -50 20 -50 -2 0 -16 23 -30 50 -14 28 -23 50 -20 50
2 0 16 -22 30 -50z m-70 -72 c14 -29 14 -31 0 -14 -8 11 -15 23 -15 28 0 18
-27 6 -82 -38 -32 -25 -58 -43 -58 -40 0 9 115 96 127 96 7 0 20 -15 28 -32z
m130 -38 c14 -27 23 -50 20 -50 -2 0 -16 23 -30 50 -14 28 -23 50 -20 50 2 0
16 -22 30 -50z m725 15 c-14 -17 -80 -48 -87 -41 -2 2 15 11 37 20 22 9 43 23
47 31 3 9 8 14 11 11 3 -3 -1 -13 -8 -21z m-826 -31 c3 -8 2 -12 -4 -9 -6 3
-10 10 -10 16 0 14 7 11 14 -7z m-194 -18 c0 -3 -72 -62 -160 -131 -88 -69
-160 -129 -160 -132 0 -3 114 -4 253 -1 138 2 214 1 167 -3 -114 -10 -412 -11
-427 -1 -7 4 51 56 155 139 173 136 172 136 172 129z m919 -1 c-9 -9 -152 -65
-156 -61 -2 2 29 17 69 34 70 29 97 38 87 27z m-705 -21 c3 -8 2 -12 -4 -9 -6
3 -10 10 -10 16 0 14 7 11 14 -7z m141 -54 c14 -27 23 -50 20 -50 -2 0 -16 23
-30 50 -14 28 -23 50 -20 50 2 0 16 -22 30 -50z m-84 -51 c16 -34 29 -63 27
-65 -2 -2 -18 26 -36 61 -17 36 -30 65 -27 65 3 0 19 -27 36 -61z m459 46
c-14 -8 -29 -14 -35 -14 -5 0 1 6 15 14 14 8 30 14 35 14 6 0 -1 -6 -15 -14z
m-51 -20 c-9 -9 -152 -65 -156 -61 -2 2 29 17 69 34 70 29 97 38 87 27z m-252
-80 c17 -13 17 -14 -3 -9 -12 3 -27 18 -33 32 -10 24 -10 25 3 9 8 -10 23 -25
33 -32z m73 5 c-8 -5 -24 -9 -35 -9 -16 1 -16 2 5 9 35 11 48 11 30 0z m-200
-65 c-9 -10 -29 -14 -64 -13 l-51 2 54 3 c45 4 54 8 59 26 3 12 7 16 10 9 2
-7 -2 -19 -8 -27z"/>
</g>
</svg>
