<?xml version="1.0" standalone="no"?>
<!DOCTYPE svg PUBLIC "-//W3C//DTD SVG 20010904//EN"
 "http://www.w3.org/TR/2001/REC-SVG-20010904/DTD/svg10.dtd">
<svg version="1.0" xmlns="http://www.w3.org/2000/svg"
 width="1280.000000pt" height="640.000000pt" viewBox="0 0 1280.000000 640.000000"
 preserveAspectRatio="xMidYMid meet">
<metadata>
Created by potrace 1.15, written by Peter Selinger 2001-2017
</metadata>
<g transform="translate(0.000000,640.000000) scale(0.100000,-0.100000)"
fill="#000000" stroke="none">
<path d="M11818 5180 c-1 -5 -44 -15 -93 -21 -50 -6 -132 -17 -184 -25 -70
-10 -98 -11 -108 -2 -10 8 -18 7 -31 -4 -12 -11 -155 -32 -486 -74 -257 -32
-463 -60 -457 -62 6 -2 214 22 463 54 338 42 459 54 478 47 21 -8 31 -6 49 9
17 13 40 18 87 18 57 0 64 -2 64 -20 0 -11 -5 -20 -12 -20 -7 0 -54 -20 -104
-45 -155 -75 -306 -237 -426 -455 -118 -215 -232 -566 -318 -985 -23 -116 -35
-154 -51 -167 -25 -21 -81 -23 -208 -8 -47 6 -153 17 -236 25 -82 8 -280 28
-440 45 -1302 133 -2631 234 -3530 270 -465 18 -465 18 -465 43 -1 12 -7 148
-15 302 -10 214 -11 281 -2 287 14 9 74 13 131 10 21 -2 44 2 50 7 7 6 129 25
272 43 142 18 252 34 243 36 -8 1 -124 -11 -257 -28 -133 -17 -253 -28 -267
-24 -15 4 -39 0 -58 -9 -17 -8 -67 -18 -109 -22 l-78 -7 0 -308 0 -309 -227 6
c-126 3 -231 10 -234 15 -3 5 -40 -5 -81 -22 -118 -47 -115 -47 -164 45 -24
44 -44 85 -44 90 0 6 97 51 215 100 203 85 247 112 178 109 -25 -1 -33 4 -47
33 -22 46 -32 36 -12 -11 15 -35 15 -37 -7 -45 -12 -5 -95 -40 -184 -79 l-162
-70 -18 31 -18 30 -345 -2 c-322 -1 -349 -3 -406 -23 -33 -11 -82 -36 -107
-54 -43 -31 -107 -106 -107 -125 0 -4 21 -10 47 -12 27 -2 -42 -3 -152 -1
-110 2 -517 5 -905 6 -767 3 -751 4 -1090 -58 -263 -47 -619 -146 -751 -207
-76 -35 -318 -137 -326 -137 -3 0 -14 7 -22 14 -22 20 -33 10 -59 -54 -13 -30
-21 -45 -18 -33 4 22 3 22 -25 7 -34 -17 -40 -30 -6 -14 20 10 21 10 4 -3 -10
-8 -26 -13 -36 -10 -10 3 -35 -6 -55 -19 -35 -22 -37 -25 -31 -64 6 -41 6 -42
-60 -93 -35 -28 -76 -68 -90 -89 -31 -47 -64 -196 -53 -237 5 -20 3 -34 -5
-41 -23 -22 -248 -174 -257 -174 -5 0 -17 13 -26 29 -10 17 -21 28 -26 25 -5
-3 2 -19 14 -36 l21 -31 -22 -18 c-20 -17 -22 -39 -2 -39 4 0 79 49 167 110
l159 110 42 -48 c25 -27 42 -57 43 -71 1 -59 101 -150 206 -189 26 -9 49 -23
52 -30 2 -8 -6 -34 -18 -59 -23 -46 -23 -48 -17 -332 6 -285 22 -487 53 -676
16 -101 28 -131 43 -107 9 15 57 372 76 577 8 83 15 208 15 278 0 114 -2 131
-21 156 -11 15 -24 53 -28 84 l-8 57 34 0 c22 0 33 -5 33 -15 0 -31 118 -97
269 -149 109 -38 183 -46 210 -22 12 11 36 13 105 9 l89 -6 -39 -20 c-52 -26
-73 -45 -95 -88 -10 -20 -27 -39 -39 -42 -25 -6 -26 -37 -2 -44 10 -2 28 -26
39 -52 12 -29 35 -59 58 -77 l38 -29 1366 -2 1366 -3 278 43 c153 24 280 41
282 38 3 -2 5 -24 5 -49 l0 -44 135 4 c74 1 135 0 135 -4 0 -5 29 -8 65 -8
l65 0 0 30 c0 35 4 36 61 10 42 -18 67 -20 447 -20 l404 0 41 -90 c22 -50 44
-90 49 -90 6 0 -50 143 -68 171 -3 5 89 9 215 9 l219 0 98 113 c54 61 99 113
100 115 0 1 94 -42 207 -97 134 -65 209 -96 213 -89 4 6 -3 20 -16 30 -23 18
-23 20 -7 53 10 20 12 35 6 35 -5 0 -17 -16 -25 -35 l-14 -35 -165 82 c-91 46
-165 85 -165 89 0 3 29 39 65 81 l64 76 108 6 c59 4 175 11 257 18 84 6 188 7
235 3 122 -10 142 -10 274 -1 116 8 117 8 117 -14 0 -21 3 -21 78 -15 42 4
212 17 377 28 l299 22 6 25 c7 31 36 38 43 10 3 -14 13 -20 31 -20 40 0 569
50 584 55 6 2 12 13 12 24 0 16 10 20 63 25 125 13 634 69 777 86 157 18 714
89 865 110 83 11 179 24 214 29 49 6 68 13 83 32 l19 24 17 -25 c50 -74 120
-107 202 -96 66 9 113 45 146 112 27 55 28 56 43 35 l16 -21 145 24 c80 14
202 36 273 51 230 46 507 135 507 162 0 8 14 13 38 13 50 0 70 13 53 34 -25
30 -326 136 -556 196 -96 25 -345 80 -361 80 -2 0 -4 4 -4 9 0 4 75 -7 166
-25 l167 -34 196 109 196 109 -2 93 c-5 252 -94 725 -186 984 -13 39 -16 40
-68 46 l-54 6 48 1 c31 1 47 6 47 15 0 27 -121 255 -169 318 -84 111 -182 178
-292 201 -57 12 -58 13 -61 47 -3 35 -31 57 -40 31z m-7 -33 c-1 -4 -1 -13 -1
-21 0 -9 -23 -15 -82 -20 -79 -7 -85 -5 -91 21 -1 5 34 13 78 19 86 12 97 12
96 1z m-7113 -1154 c-86 -2 -230 -2 -320 0 -90 1 -19 3 157 3 176 0 249 -2
163 -3z m-491 -9 c-3 -3 -12 -4 -19 -1 -8 3 -5 6 6 6 11 1 17 -2 13 -5z m-47
-14 c-8 -5 -19 -10 -25 -10 -5 0 -3 5 5 10 8 5 20 10 25 10 6 0 3 -5 -5 -10z
m691 -6 c-19 -8 -41 -19 -48 -26 -7 -6 -13 -8 -13 -4 0 10 63 46 80 46 8 -1 0
-7 -19 -16z m-751 -18 c0 -2 -12 -11 -27 -20 l-28 -17 24 20 c23 21 31 25 31
17z m676 -52 c-11 -8 -25 -14 -30 -13 -6 0 -1 5 12 11 12 6 22 16 22 21 0 6 3
7 7 3 5 -4 -1 -14 -11 -22z m-772 -31 c-44 -59 -54 -67 -30 -28 18 29 56 75
63 75 1 0 -13 -21 -33 -47z m167 -4 l24 -21 -25 16 c-43 28 -113 13 -126 -26
-3 -11 -8 -18 -10 -15 -10 9 10 38 35 52 37 20 75 18 102 -6z m504 -9 c-33
-16 -67 -29 -75 -29 -8 0 14 13 50 28 84 38 103 38 25 1z m318 -121 c-5 -5
-24 -11 -43 -14 l-35 -5 35 11 c19 6 36 12 38 14 2 2 -10 30 -27 64 -17 33
-31 64 -31 68 1 4 17 -23 36 -61 20 -38 32 -72 27 -77z m-163 94 c0 -2 -6 -3
-12 -1 -28 5 -58 -14 -58 -36 0 -13 -8 -30 -17 -37 -15 -11 -16 -11 -5 1 6 8
12 24 12 37 0 14 10 27 27 37 24 12 53 12 53 -1z m60 -3 c0 -5 -28 -32 -62
-60 -51 -40 -70 -50 -100 -50 -27 0 -38 4 -38 15 0 8 8 15 18 15 14 0 15 -2 2
-10 -11 -7 -7 -10 19 -10 46 0 154 79 125 92 -16 7 -15 8 4 4 12 -2 22 0 22 5
0 5 2 9 5 9 3 0 5 -4 5 -10z m47 -67 c-2 -16 -4 -5 -4 22 0 28 2 40 4 28 2
-13 2 -35 0 -50z m-338 27 c11 -24 11 -24 -3 -6 -9 11 -16 24 -16 30 0 12 5 7
19 -24z m-331 -22 l3 -38 174 0 c172 0 174 0 178 23 4 19 4 18 6 -5 l1 -28
-185 0 -185 0 0 39 c0 38 -1 40 -37 44 l-38 4 40 -1 c39 -1 40 -2 43 -38z
m-1961 -114 c-2 -2 -26 -6 -53 -9 -54 -6 -50 0 9 10 l37 6 2 67 2 67 3 -69 c2
-37 2 -70 0 -72z m-34 119 c-13 -2 -35 -2 -50 0 -16 2 -5 4 22 4 28 0 40 -2
28 -4z m-100 -10 c-13 -2 -33 -2 -45 0 -13 2 -3 4 22 4 25 0 35 -2 23 -4z
m-118 -14 c-46 -8 -84 -15 -185 -35 -19 -3 -33 -4 -30 -1 3 3 39 13 80 21 104
21 121 23 155 24 17 0 9 -4 -20 -9z m-228 -45 c-3 -3 -12 -4 -19 -1 -8 3 -5 6
6 6 11 1 17 -2 13 -5z m-20 -76 c-2 -13 -4 -3 -4 22 0 25 2 35 4 23 2 -13 2
-33 0 -45z m-284 5 c-19 -4 -23 -11 -23 -45 0 -40 0 -40 34 -36 19 2 32 0 30
-4 -3 -4 -21 -8 -40 -8 l-34 0 0 50 c0 48 1 50 28 49 23 -2 24 -2 5 -6z m47
-3 c0 -5 -2 -10 -4 -10 -3 0 -8 5 -11 10 -3 6 -1 10 4 10 6 0 11 -4 11 -10z
m629 6 c-2 -2 -38 -6 -79 -9 -46 -3 -62 -2 -40 3 36 8 126 13 119 6z m-176
-23 c-13 -2 -33 -2 -45 0 -13 2 -3 4 22 4 25 0 35 -2 23 -4z m-85 -10 c-10 -2
-26 -2 -35 0 -10 3 -2 5 17 5 19 0 27 -2 18 -5z m-75 -10 c-13 -2 -33 -2 -45
0 -13 2 -3 4 22 4 25 0 35 -2 23 -4z m-775 -125 l-2 -63 -3 53 c-3 31 -9 52
-16 52 -7 0 -6 4 3 10 8 5 16 10 18 10 1 0 1 -28 0 -62z m1397 -73 l1 -130 -3
128 -4 127 -39 0 -39 0 -4 -127 -3 -128 -2 133 -2 133 48 -3 47 -3 0 -130z
m-1445 105 c-8 -5 -19 -10 -25 -10 -5 0 -3 5 5 10 8 5 20 10 25 10 6 0 3 -5
-5 -10z m1260 -120 l0 -130 -77 2 -78 2 73 3 72 4 0 124 c0 69 2 125 5 125 3
0 5 -58 5 -130z m-65 110 c-27 -5 -70 -8 -95 -7 -45 0 -45 0 10 7 30 4 73 7
95 7 38 0 37 0 -10 -7z m-1245 -10 c-8 -5 -19 -10 -25 -10 -5 0 -3 5 5 10 8 5
20 10 25 10 6 0 3 -5 -5 -10z m1060 -11 c-25 -4 -58 -7 -75 -7 -25 1 -24 2 10
8 22 4 56 7 75 7 31 0 30 0 -10 -8z m-1110 -9 c-8 -5 -19 -10 -25 -10 -5 0 -3
5 5 10 8 5 20 10 25 10 6 0 3 -5 -5 -10z m960 -125 l0 -125 -105 0 -105 0 0
110 c0 79 4 112 13 115 10 4 80 13 185 24 9 1 12 -30 12 -124z m-1010 105 c-8
-5 -19 -10 -25 -10 -5 0 -3 5 5 10 8 5 20 10 25 10 6 0 3 -5 -5 -10z m670 -10
c-14 -4 -38 -8 -55 -8 -29 1 -29 1 5 8 50 11 83 11 50 0z m-715 -10 c-3 -5
-12 -10 -18 -10 -7 0 -6 4 3 10 19 12 23 12 15 0z m583 -5 c-3 -3 -41 -14 -85
-25 -43 -10 -103 -28 -132 -40 -30 -11 -55 -19 -58 -17 -6 6 131 55 202 71 69
16 80 18 73 11z m139 -92 c-2 -21 -4 -6 -4 32 0 39 2 55 4 38 2 -18 2 -50 0
-70z m-76 60 c-12 -20 -14 -14 -5 12 4 9 9 14 11 11 3 -2 0 -13 -6 -23z m-702
-23 c0 -10 -3 -8 -9 5 -12 27 -12 43 0 25 5 -8 9 -22 9 -30z m301 30 c-8 -5
-19 -10 -25 -10 -5 0 -3 5 5 10 8 5 20 10 25 10 6 0 3 -5 -5 -10z m363 -24
c18 -4 18 -4 -3 -3 -14 1 -25 8 -26 17 0 8 1 10 3 3 2 -6 14 -14 26 -17z
m-413 4 c-8 -5 -19 -10 -25 -10 -5 0 -3 5 5 10 8 5 20 10 25 10 6 0 3 -5 -5
-10z m4502 3 c-13 -3 -19 -9 -16 -15 4 -7 2 -8 -4 -4 -21 13 -13 26 16 25 23
-2 24 -2 4 -6z m655 -1 c6 -4 -59 -7 -145 -7 l-157 0 -3 -108 -3 -108 160 3
c88 2 157 0 152 -5 -4 -4 -77 -6 -162 -5 l-154 3 -3 109 c-2 81 1 112 10 118
16 10 289 10 305 0z m-2980 -37 c2 -28 1 -28 -6 -5 l-7 25 -166 0 c-91 0 -164
3 -161 8 2 4 80 6 171 5 l167 -3 2 -30z m2373 -33 c0 -50 -1 -54 -13 -37 -34
49 -49 75 -44 75 3 0 15 -15 27 -32 l21 -33 -3 47 c-2 25 0 44 5 41 4 -2 7
-30 7 -61z m-4591 54 c-9 -9 -173 -76 -176 -72 -2 2 33 20 79 39 77 33 108 43
97 33z m5208 -143 c-2 -27 -3 -5 -3 47 0 52 1 74 3 48 2 -27 2 -69 0 -95z
m-5399 72 c0 -16 -2 -15 -8 5 -11 34 -11 60 0 35 5 -11 8 -29 8 -40z m247 19
c-27 -7 -54 -13 -60 -13 -17 2 69 27 90 27 11 0 -2 -6 -30 -14z m-396 -58 c-7
-31 -14 -54 -16 -52 -3 3 1 30 8 60 7 31 14 54 16 52 3 -3 -1 -30 -8 -60z
m428 -103 c-2 -32 -3 -8 -3 52 0 61 1 87 3 58 2 -29 2 -78 0 -110z m2073 142
c-14 -8 -29 -14 -35 -14 -5 0 1 6 15 14 14 8 30 14 35 14 6 0 -1 -6 -15 -14z
m-2206 -9 c-50 -22 -82 -27 -39 -7 22 11 47 20 55 20 8 0 1 -6 -16 -13z m-331
-51 c4 -34 3 -42 -3 -25 -8 25 -13 87 -6 79 2 -2 6 -26 9 -54z m1835 48 c-10
-2 -26 -2 -35 0 -10 3 -2 5 17 5 19 0 27 -2 18 -5z m651 -8 c-9 -8 -231 -105
-243 -105 -6 0 43 25 109 54 110 50 146 63 134 51z m-1582 -57 c-2 -13 -4 -5
-4 17 -1 22 1 32 4 23 2 -10 2 -28 0 -40z m-667 32 c-8 -5 -19 -10 -25 -10 -5
0 -3 5 5 10 8 5 20 10 25 10 6 0 3 -5 -5 -10z m1248 3 c-21 -2 -55 -2 -75 0
-21 2 -4 4 37 4 41 0 58 -2 38 -4z m-125 -10 c-7 -2 -19 -2 -25 0 -7 3 -2 5
12 5 14 0 19 -2 13 -5z m-1153 -57 c0 -39 -6 -30 -13 19 -4 27 -3 35 3 25 5
-8 10 -28 10 -44z m678 -3 c-21 -2 -55 -2 -75 0 -21 2 -4 4 37 4 41 0 58 -2
38 -4z m-175 -10 c-35 -2 -91 -2 -125 0 -35 2 -7 3 62 3 69 0 97 -1 63 -3z
m-823 -51 c-96 -73 -129 -130 -146 -246 -5 -40 -4 -47 7 -41 11 6 12 5 2 -5
-22 -23 -26 -2 -15 67 16 93 47 149 117 206 32 26 61 47 65 47 3 -1 -11 -13
-30 -28z m127 -4 c-3 -7 -5 -2 -5 12 0 14 2 19 5 13 2 -7 2 -19 0 -25z m255
-108 c28 0 80 5 114 11 57 10 63 13 66 37 2 14 9 27 16 28 7 1 8 0 2 -3 -5 -2
-10 -17 -10 -32 0 -27 -3 -29 -69 -40 -39 -6 -95 -11 -125 -11 l-56 0 2 78 2
77 3 -72 4 -73 51 0z m668 115 c0 -10 -10 -15 -32 -14 l-33 1 30 8 c52 13 -4
11 -97 -5 -48 -7 -96 -19 -107 -24 -27 -15 -31 -14 -31 7 0 10 3 13 8 6 5 -8
16 -7 37 2 30 13 30 13 -25 16 -30 1 -1 5 65 8 66 3 135 7 153 8 23 1 32 -2
32 -13z m-1013 -32 c-3 -10 -5 -4 -5 12 0 17 2 24 5 18 2 -7 2 -21 0 -30z
m707 19 c2 -4 -14 -6 -37 -4 -68 5 -76 10 -20 11 28 0 54 -2 57 -7z m-46 -29
c-10 -2 -28 -2 -40 0 -13 2 -5 4 17 4 22 1 32 -1 23 -4z m-651 -45 c-3 -7 -5
-2 -5 12 0 14 2 19 5 13 2 -7 2 -19 0 -25z m15 -42 c4 -18 -2 -27 -26 -40 -29
-16 -30 -16 -8 0 12 9 22 27 22 40 0 31 6 31 12 0z m-86 -46 c-33 -10 -65 -37
-77 -65 -6 -15 -8 -16 -8 -4 -1 23 65 79 92 78 18 -1 17 -2 -7 -9z m364 -15
c0 -8 -2 -15 -4 -15 -2 0 -6 7 -10 15 -3 8 -1 15 4 15 6 0 10 -7 10 -15z
m-260 -52 c0 -14 -2 -15 -9 -5 -6 10 -10 7 -13 -12 -6 -28 1 -33 20 -14 7 7
12 8 12 2 0 -6 -16 -18 -36 -27 -19 -10 -57 -37 -83 -62 -51 -47 -57 -47 -85
3 -13 21 23 40 65 35 48 -7 94 19 97 54 1 14 4 29 8 34 9 15 24 10 24 -8z
m8700 -462 c0 -11 -40 -18 -152 -27 -59 -4 -88 -3 -88 4 0 6 26 13 58 17 31 3
64 8 72 9 34 8 110 5 110 -3z m-272 -23 c-5 -13 -40 -18 -200 -32 -51 -5 -78
-3 -78 3 0 15 19 18 263 39 11 1 17 -3 15 -10z m-388 -42 c0 -14 -28 -17 -244
-32 -82 -6 -98 -5 -94 7 3 10 39 17 129 25 185 16 209 16 209 0z m-370 -29 c0
-10 -42 -16 -162 -24 -90 -6 -165 -9 -167 -7 -15 14 29 23 139 32 185 14 190
14 190 -1z m-1471 -147 c-18 -22 -37 -40 -43 -40 -6 1 -18 16 -27 35 -16 34
-16 35 5 34 11 0 16 -3 9 -5 -9 -4 -9 -11 -1 -30 14 -31 20 -30 46 5 l22 30
-23 4 c-15 3 -12 5 11 6 l33 1 -32 -40z m-203 -55 c21 -32 22 -36 6 -21 -12
10 -24 27 -27 37 -15 46 -25 10 -28 -103 l-3 -123 -1 132 c-1 147 2 152 53 78z
m-1806 5 c0 -29 -4 -40 -15 -40 -20 0 -328 69 -334 75 -2 3 75 5 172 5 l177 0
0 -40z m128 -6 c-5 -21 -8 -48 -5 -61 2 -13 0 -26 -4 -29 -5 -3 -9 1 -9 9 0 8
-7 17 -15 21 -10 4 -15 20 -15 51 0 43 1 45 29 45 29 0 29 -1 19 -36z m42 -50
c0 -63 -17 -54 -22 10 -2 43 0 52 10 44 6 -6 12 -30 12 -54z m360 -69 l0 -105
-29 0 c-17 0 -32 4 -35 8 -3 5 8 6 25 4 l29 -4 0 96 0 96 -50 0 -49 0 -4 -82
-3 -83 -2 88 -2 87 60 0 60 0 0 -105z m1368 43 c-24 -29 -64 -77 -88 -105 -24
-29 -48 -53 -53 -53 -6 0 -4 6 5 13 9 6 44 46 78 87 l62 74 -31 9 c-17 4 -31
10 -31 12 0 3 11 3 24 -1 14 -3 33 -1 43 5 37 21 34 10 -9 -41z m-1688 5 c0
-14 -3 -23 -7 -19 -10 10 -11 46 -1 46 4 0 8 -12 8 -27z m528 0 c-57 -4 -58
-5 -58 -33 0 -30 0 -30 59 -30 l60 0 4 35 4 35 -1 -37 -1 -38 -65 0 -65 0 -3
38 -3 37 63 -2 63 -2 -57 -3z m-613 -74 c-4 -6 -4 -31 0 -56 8 -56 25 -40 25
25 0 23 5 42 10 42 6 0 10 -20 10 -44 0 -25 5 -48 10 -51 6 -4 10 13 10 44 0
28 5 51 10 51 6 0 10 -28 10 -65 l0 -66 -62 3 -63 3 -3 42 c-2 30 2 48 15 62
19 21 39 28 28 10z"/>
<path d="M1865 3435 c-5 -2 -45 -6 -87 -10 l-78 -7 0 -104 0 -104 95 0 95 0 0
115 c0 63 -3 115 -7 114 -5 0 -12 -2 -18 -4z"/>
<path d="M411 2767 c-9 -11 -7 -19 6 -36 l18 -22 29 30 c28 29 28 31 9 31 -12
0 -28 2 -36 5 -7 3 -19 0 -26 -8z"/>
<path d="M9780 4912 c-327 -42 -588 -78 -579 -80 14 -3 1192 143 1229 152 63
16 -140 -7 -650 -72z"/>
<path d="M8815 4789 c-165 -21 -745 -95 -1290 -164 -544 -69 -997 -127 -1005
-130 -8 -2 10 -3 40 0 58 4 2584 322 2610 329 54 13 -98 -2 -355 -35z"/>
<path d="M432 3185 c-40 -37 -84 -86 -97 -109 -33 -56 -47 -130 -37 -186 l9
-45 7 40 c21 110 37 146 89 199 29 28 67 63 86 77 32 24 34 28 25 59 l-9 32
-73 -67z m63 37 c-6 -5 -35 -31 -66 -58 l-56 -49 59 58 c32 31 62 57 65 57 4
0 3 -4 -2 -8z m-147 -161 c-12 -22 -24 -38 -26 -36 -5 4 37 75 44 75 3 0 -6
-18 -18 -39z m-31 -83 c-3 -8 -6 -5 -6 6 -1 11 2 17 5 13 3 -3 4 -12 1 -19z
m-10 -55 c-3 -10 -5 -4 -5 12 0 17 2 24 5 18 2 -7 2 -21 0 -30z"/>
</g>
</svg>
