<svg xmlns="http://www.w3.org/2000/svg" viewBox="0 -0.5 109 54" shape-rendering="crispEdges">
<metadata>Made with Pixels to Svg https://codepen.io/shshaw/pen/XbxvNj</metadata>
<path stroke="#000000" d="M97 1h10M97 2h10M97 3h10M97 4h10M97 5h10M97 6h10M97 7h10M97 8h10M97 9h10M97 10h10M17 11h55M77 11h30M17 12h55M77 12h30M17 13h55M77 13h30M17 14h55M77 14h30M17 15h55M77 15h30M12 16h10M67 16h15M97 16h10M12 17h10M67 17h15M97 17h10M12 18h10M67 18h15M97 18h10M12 19h10M67 19h15M97 19h10M12 20h10M67 20h15M97 20h10M7 21h10M77 21h5M97 21h10M7 22h10M77 22h5M97 22h10M7 23h10M77 23h5M97 23h10M7 24h10M77 24h5M97 24h10M7 25h10M77 25h5M97 25h10M7 26h5M77 26h5M97 26h10M7 27h5M77 27h5M97 27h10M7 28h5M77 28h5M97 28h10M7 29h5M77 29h5M97 29h10M7 30h5M77 30h5M97 30h10M2 31h10M77 31h5M97 31h10M2 32h10M77 32h5M97 32h10M2 33h10M77 33h5M97 33h10M2 34h10M77 34h5M97 34h10M2 35h10M77 35h5M97 35h10M2 36h10M77 36h5M97 36h10M2 37h10M77 37h5M97 37h10M2 38h10M77 38h5M97 38h10M2 39h10M77 39h5M97 39h10M2 40h10M77 40h5M97 40h10M7 41h10M72 41h10M97 41h10M7 42h10M72 42h10M97 42h10M7 43h10M72 43h10M97 43h10M7 44h10M72 44h10M97 44h10M7 45h10M72 45h10M97 45h10M12 46h95M12 47h95M12 48h95M12 49h95M12 50h95" />
<path stroke="#b4b4b4" d="M22 16h45M82 16h15M22 17h45M82 17h15M22 18h45M82 18h15M22 19h45M82 19h15M22 20h45M82 20h15M17 21h60M82 21h15M17 22h60M82 22h15M17 23h60M82 23h15M17 24h60M82 24h15M17 25h60M82 25h15M12 26h65M82 26h15M12 27h65M82 27h15M12 28h65M82 28h15M12 29h65M82 29h15M12 30h65M82 30h15M12 31h65M82 31h15M12 32h65M82 32h15M12 33h65M82 33h15M12 34h65M82 34h15M12 35h65M82 35h15M12 36h65M82 36h15M12 37h65M82 37h15M12 38h65M82 38h15M12 39h65M82 39h15M12 40h65M82 40h15M17 41h55M82 41h15M17 42h55M82 42h15M17 43h55M82 43h15M17 44h55M82 44h15M17 45h55M82 45h15" />
</svg>