<?xml version="1.0" standalone="no"?>
<!DOCTYPE svg PUBLIC "-//W3C//DTD SVG 20010904//EN"
 "http://www.w3.org/TR/2001/REC-SVG-20010904/DTD/svg10.dtd">
<svg version="1.0" xmlns="http://www.w3.org/2000/svg"
 width="1280.000000pt" height="640.000000pt" viewBox="0 0 1280.000000 640.000000"
 preserveAspectRatio="xMidYMid meet">
<metadata>
Created by potrace 1.15, written by Peter Selinger 2001-2017
</metadata>
<g transform="translate(0.000000,640.000000) scale(0.100000,-0.100000)"
fill="#000000" stroke="none">
<path d="M10890 5070 c-65 -12 -137 -38 -203 -73 -72 -38 -189 -144 -223 -203
-14 -24 -33 -44 -42 -44 -10 0 -24 -5 -32 -11 -12 -8 -9 -9 12 -5 l27 6 -16
-37 c-8 -21 -55 -117 -103 -213 -144 -285 -247 -436 -409 -604 -231 -237 -494
-384 -841 -471 -127 -32 -295 -59 -322 -52 -12 4 -27 2 -33 -3 -14 -12 -334
-53 -353 -45 -8 3 -20 1 -26 -4 -11 -9 -575 -84 -599 -79 -6 1 -21 -1 -32 -5
-25 -8 -426 -59 -431 -54 -2 2 -12 56 -22 120 -13 80 -15 120 -8 127 7 7 7 10
-1 10 -6 0 -14 15 -19 33 l-8 32 -3 -42 c-3 -25 -9 -43 -16 -43 -8 0 -7 -3 2
-9 17 -11 32 -232 16 -237 -25 -8 -251 -35 -274 -32 -14 1 -31 -1 -37 -4 -9
-6 -387 -58 -524 -72 -25 -3 -72 -10 -105 -15 -120 -21 -522 -8 -545 18 -3 3
-17 6 -32 7 -80 1 -108 5 -108 13 0 9 177 114 233 138 34 15 38 48 5 37 -13
-4 -25 -10 -28 -14 -14 -20 -248 -144 -277 -147 -26 -2 -40 5 -68 33 l-35 35
-343 14 c-209 9 -597 15 -999 15 -578 0 -658 2 -658 15 0 13 25 15 165 15 103
0 165 4 165 10 0 6 -62 10 -165 10 -142 0 -165 2 -165 15 0 37 -42 95 -87 122
-47 27 -52 28 -221 31 l-172 4 -35 -35 c-34 -34 -35 -38 -35 -111 l0 -75 -337
-3 -338 -3 -55 -26 c-30 -14 -102 -64 -160 -111 l-105 -85 -195 -6 c-215 -7
-368 -24 -565 -63 -147 -29 -362 -89 -382 -106 -10 -8 -13 -29 -12 -62 3 -44
0 -51 -16 -54 -48 -8 -194 -56 -237 -78 -39 -20 -48 -21 -48 -9 0 8 -8 15 -17
15 -21 0 -55 -20 -36 -20 18 0 -16 -68 -36 -74 -18 -5 -192 -32 -260 -41 -50
-6 -64 -12 -55 -27 4 -6 21 -8 38 -5 155 28 280 47 284 42 3 -3 -2 -5 -11 -5
-45 0 0 -65 156 -230 108 -114 153 -154 189 -170 53 -23 212 -65 398 -105 129
-28 160 -45 174 -92 7 -23 3 -28 -58 -76 -25 -21 -27 -26 -17 -46 16 -30 50
-41 124 -41 92 0 216 37 202 60 -3 6 -37 19 -76 31 -79 24 -100 46 -76 83 15
22 17 22 89 10 40 -7 127 -20 193 -29 224 -30 247 -34 252 -39 3 -3 9 -114 13
-246 5 -155 12 -246 19 -253 6 -6 11 -9 12 -7 0 3 6 116 13 252 6 136 14 249
16 251 3 2 68 -1 145 -7 l140 -11 5 -142 c5 -133 11 -165 26 -150 4 3 9 70 13
149 l6 143 222 3 223 2 54 -44 c72 -59 138 -80 230 -74 81 6 152 37 200 87
l30 31 958 0 c839 0 1268 6 1739 24 l126 5 6 -59 c7 -78 49 -153 113 -203 58
-44 109 -61 184 -61 86 0 124 19 206 100 68 67 74 76 74 113 l0 41 163 2 c99
2 162 7 162 13 0 6 -63 11 -162 13 l-163 2 0 34 0 33 148 7 c81 3 211 9 290
12 124 6 145 5 160 -10 20 -17 34 -13 26 8 -5 12 128 25 439 43 l87 5 0 -36
c0 -22 4 -35 10 -31 6 3 10 21 10 39 l0 34 88 6 c48 4 134 11 192 16 58 5 161
14 230 20 69 6 172 15 230 21 222 20 434 39 447 39 7 0 13 -11 13 -25 0 -34
18 -32 22 3 3 27 3 27 108 35 145 11 164 17 171 53 3 19 10 27 20 24 26 -8
272 -2 394 10 66 6 192 13 281 15 149 4 209 8 482 35 168 16 303 29 367 35 33
3 103 10 155 15 52 5 143 14 203 20 168 16 308 29 425 40 183 18 302 29 422
40 225 21 275 30 341 64 57 28 64 35 65 62 0 16 4 35 8 42 4 7 5 26 1 43 -4
16 -2 35 3 42 6 7 12 23 14 37 3 23 12 27 148 58 141 32 193 52 138 52 -15 0
-84 -13 -153 -30 -158 -38 -179 -38 -214 -2 -36 35 -131 86 -229 122 -66 24
-77 31 -77 51 0 16 8 26 25 31 20 6 19 7 -7 3 -29 -4 -33 -2 -34 18 0 14 -2
16 -6 7 -2 -8 -7 -22 -10 -30 -4 -8 -5 -21 -4 -27 1 -7 -3 -13 -9 -13 -6 0
-10 26 -11 63 0 49 -6 71 -28 107 l-27 45 -310 5 -309 5 303 3 c269 2 302 4
302 18 0 16 -57 317 -181 959 -76 394 -83 422 -139 542 -101 217 -266 376
-450 434 -73 23 -245 34 -320 19z m-7747 -1687 c-7 -2 -21 -2 -30 0 -10 3 -4
5 12 5 17 0 24 -2 18 -5z m-198 -13 c3 -6 -1 -7 -9 -4 -18 7 -21 14 -7 14 6 0
13 -4 16 -10z m202 -62 c-2 -13 -4 -5 -4 17 -1 22 1 32 4 23 2 -10 2 -28 0
-40z m-126 15 c-12 -20 -14 -14 -5 12 4 9 9 14 11 11 3 -2 0 -13 -6 -23z m-93
-8 c-6 -14 -13 -23 -15 -21 -5 5 15 46 22 46 3 0 -1 -11 -7 -25z m-41 -47 c-2
-13 -4 -3 -4 22 0 25 2 35 4 23 2 -13 2 -33 0 -45z m126 15 c-7 -2 -19 -2 -25
0 -7 3 -2 5 12 5 14 0 19 -2 13 -5z m-533 -139 c0 -2 -51 -3 -112 -2 l-113 2
85 5 c81 6 140 3 140 -5z m8823 -51 c-23 -2 -64 -2 -90 0 -26 2 -7 3 42 3 50
0 71 -1 48 -3z m-9083 -30 c-1 -10 -18 -37 -39 -60 -34 -38 -42 -42 -70 -37
-42 9 -39 21 4 16 21 -3 35 0 35 7 0 6 -6 8 -14 5 -8 -3 -17 -1 -20 4 -4 6
-20 7 -43 1 -38 -8 -103 -2 -103 10 1 3 20 21 43 38 39 31 47 33 125 33 72 0
82 -2 82 -17z m406 -63 c1 -41 0 -63 -3 -47 -2 15 -8 27 -13 27 -5 0 -10 -12
-12 -27 l-3 -28 -157 -3 -158 -3 0 58 c0 45 5 62 22 80 21 23 26 23 172 21
l151 -3 1 -75z m248 67 c14 -10 16 -25 14 -77 l-3 -65 -104 -3 c-77 -2 -107 1
-113 10 -9 15 -11 109 -2 132 5 13 23 16 98 16 59 0 98 -5 110 -13z m9084 -36
c7 -21 12 -59 12 -85 l0 -46 -65 0 -65 0 0 85 0 85 53 0 c54 0 54 0 65 -39z
m42 11 c0 -15 -2 -15 -10 -2 -13 20 -13 33 0 25 6 -3 10 -14 10 -23z m-205
-57 l0 -70 -44 -3 c-84 -6 -91 0 -91 72 0 34 3 66 7 70 4 4 34 6 68 4 l60 -3
0 -70z m-9579 -62 c-11 -11 -19 6 -11 24 8 17 8 17 12 0 3 -10 2 -21 -1 -24z
m-786 -47 c0 -10 -23 -15 -82 -20 -46 -4 -91 -9 -100 -12 -11 -3 -18 0 -18 9
0 10 21 17 73 24 108 15 127 15 127 -1z m6620 -65 c9 -17 -1 -26 -82 -77 -91
-57 -111 -64 -248 -84 -90 -13 -90 -14 -80 -49 5 -17 5 -33 0 -36 -5 -3 -10 3
-12 12 -5 21 2 222 7 241 3 9 53 12 204 12 187 0 201 -1 211 -19z m10 -137 c0
-128 5 -124 -158 -124 l-137 0 46 28 c25 15 53 34 62 43 8 9 43 21 76 28 34 7
61 16 61 22 0 12 -6 11 -64 -6 -27 -8 -54 -15 -60 -15 -12 0 154 109 167 110
4 0 7 -39 7 -86z m-7350 -48 c0 -23 -6 -26 -77 -41 -43 -8 -102 -21 -131 -27
-118 -25 -35 20 119 66 46 14 85 25 87 25 1 1 2 -10 2 -23z m6960 -6 c0 -5 -4
-10 -10 -10 -5 0 -10 5 -10 10 0 6 5 10 10 10 6 0 10 -4 10 -10z m-5956 -36
c3 -9 6 -33 6 -54 0 -68 -2 -70 -100 -70 -98 0 -100 2 -100 70 0 68 2 70 100
70 71 0 89 -3 94 -16z m5966 2 c0 -3 -4 -8 -10 -11 -5 -3 -10 -1 -10 4 0 6 5
11 10 11 6 0 10 -2 10 -4z m-6812 -84 c3 -57 1 -62 -18 -62 -18 0 -20 6 -20
66 0 57 2 65 18 62 14 -3 18 -16 20 -66z m369 -9 c-2 -16 -4 -3 -4 27 0 30 2
43 4 28 2 -16 2 -40 0 -55z m183 57 c0 -20 -1 -20 -25 -4 -14 9 -25 18 -25 20
0 2 11 4 25 4 18 0 25 -5 25 -20z m-455 -51 c0 -43 -3 -54 -17 -57 -15 -3 -18
4 -18 51 0 29 3 57 7 61 17 17 28 -5 28 -55z m393 -9 l47 -30 -52 0 c-52 0
-53 0 -53 30 0 17 2 30 5 30 3 0 26 -13 53 -30z m-646 -18 l-4 -38 -76 12
c-43 7 -85 13 -95 13 -32 1 -12 25 24 29 47 4 50 4 81 -4 21 -5 29 -2 34 10 3
9 14 16 23 16 13 0 16 -8 13 -38z m-264 -60 c3 -30 1 -33 -16 -27 -32 10 -21
-17 23 -56 42 -38 100 -63 118 -52 5 3 7 1 3 -5 -3 -6 11 -20 34 -33 34 -19
40 -28 40 -56 0 -22 -5 -33 -14 -33 -8 0 -16 -5 -18 -11 -5 -16 -253 247 -253
269 0 9 -4 23 -9 30 -6 10 3 13 41 10 46 -3 48 -4 51 -36z m185 6 l77 -11 0
-39 c0 -21 -1 -41 -2 -44 -5 -11 -92 -13 -130 -3 -42 11 -58 33 -58 78 0 36 1
36 113 19z m27 -154 c0 -10 -5 -14 -15 -10 -47 19 -50 19 -30 2 20 -17 20 -17
-3 -6 -29 14 -19 30 19 30 20 0 29 -5 29 -16z m19 -183 c-6 -2 -21 7 -33 19
l-21 23 33 -19 c18 -10 28 -20 21 -23z m5905 -187 c10 -26 7 -44 -8 -44 -8 0
-19 14 -25 30 -9 26 -8 30 8 30 11 0 22 -7 25 -16z m-428 -55 c-3 -17 -6 -39
-7 -48 -1 -17 -27 45 -28 67 -1 6 9 12 20 12 19 0 21 -4 15 -31z m312 -97 c21
-14 22 -16 6 -33 -24 -27 -36 -24 -62 17 -37 57 -17 63 56 16z m27 27 c12 -19
-3 -22 -27 -5 l-22 16 21 0 c12 0 25 -5 28 -11z m-310 -49 c3 -11 27 -37 52
-58 41 -35 44 -41 33 -61 l-11 -22 -46 33 c-25 18 -55 50 -67 71 -18 32 -19
39 -6 47 23 15 38 12 45 -10z m102 5 c1 -5 -2 -17 -7 -25 -8 -13 -11 -13 -26
2 -9 9 -13 21 -9 28 8 13 37 10 42 -5z m119 -50 c-1 -5 -10 -11 -19 -13 -14
-3 -17 4 -17 35 l0 38 20 -25 c11 -14 18 -29 16 -35z m173 18 c2 -2 -4 -12
-15 -24 -17 -19 -19 -19 -25 -2 -4 10 -8 29 -8 42 -1 24 -1 24 22 5 12 -10 24
-20 26 -21z m-49 -52 c0 -6 -4 -13 -10 -16 -5 -3 -10 1 -10 9 0 9 5 16 10 16
6 0 10 -4 10 -9z m-40 -26 c0 -17 -27 -32 -37 -21 -4 3 2 13 13 21 24 18 24
18 24 0z m-65 -16 c9 -26 6 -29 -39 -36 -35 -5 -36 -5 -36 26 0 29 3 31 34 31
26 0 36 -5 41 -21z"/>
<path d="M374 2408 c2 -19 16 -38 26 -38 4 0 7 6 6 13 -2 18 -16 37 -26 37 -4
0 -7 -6 -6 -12z"/>
<path d="M10265 4695 c-49 -19 -102 -42 -116 -50 -14 -8 -29 -12 -31 -9 -3 3
-8 -2 -11 -11 -6 -13 -3 -14 21 -1 15 8 74 33 132 55 57 23 106 44 109 46 10
11 -19 2 -104 -30z"/>
<path d="M9890 4560 c-8 -5 -10 -10 -5 -10 6 0 17 5 25 10 8 5 11 10 5 10 -5
0 -17 -5 -25 -10z"/>
<path d="M9860 4520 c-8 -5 -10 -10 -5 -10 6 0 17 5 25 10 8 5 11 10 5 10 -5
0 -17 -5 -25 -10z"/>
<path d="M9810 4500 c-8 -5 -10 -10 -5 -10 6 0 17 5 25 10 8 5 11 10 5 10 -5
0 -17 -5 -25 -10z"/>
<path d="M9620 4420 c-8 -5 -10 -10 -5 -10 6 0 17 5 25 10 8 5 11 10 5 10 -5
0 -17 -5 -25 -10z"/>
<path d="M9570 4400 c-8 -5 -10 -10 -5 -10 6 0 17 5 25 10 8 5 11 10 5 10 -5
0 -17 -5 -25 -10z"/>
<path d="M9380 4320 c-8 -5 -10 -10 -5 -10 6 0 17 5 25 10 8 5 11 10 5 10 -5
0 -17 -5 -25 -10z"/>
<path d="M9330 4300 c-8 -5 -10 -10 -5 -10 6 0 17 5 25 10 8 5 11 10 5 10 -5
0 -17 -5 -25 -10z"/>
<path d="M9090 4200 c-8 -5 -10 -10 -5 -10 6 0 17 5 25 10 8 5 11 10 5 10 -5
0 -17 -5 -25 -10z"/>
<path d="M8850 4100 c-8 -5 -10 -10 -5 -10 6 0 17 5 25 10 8 5 11 10 5 10 -5
0 -17 -5 -25 -10z"/>
<path d="M8610 4000 c-8 -5 -10 -10 -5 -10 6 0 17 5 25 10 8 5 11 10 5 10 -5
0 -17 -5 -25 -10z"/>
<path d="M8370 3900 c-8 -5 -10 -10 -5 -10 6 0 17 5 25 10 8 5 11 10 5 10 -5
0 -17 -5 -25 -10z"/>
<path d="M8320 3880 c-8 -5 -10 -10 -5 -10 6 0 17 5 25 10 8 5 11 10 5 10 -5
0 -17 -5 -25 -10z"/>
<path d="M8130 3800 c-8 -5 -10 -10 -5 -10 6 0 17 5 25 10 8 5 11 10 5 10 -5
0 -17 -5 -25 -10z"/>
<path d="M8080 3780 c-8 -5 -10 -10 -5 -10 6 0 17 5 25 10 8 5 11 10 5 10 -5
0 -17 -5 -25 -10z"/>
<path d="M7840 3680 c-8 -5 -10 -10 -5 -10 6 0 17 5 25 10 8 5 11 10 5 10 -5
0 -17 -5 -25 -10z"/>
<path d="M7600 3580 c-8 -5 -10 -10 -5 -10 6 0 17 5 25 10 8 5 11 10 5 10 -5
0 -17 -5 -25 -10z"/>
<path d="M7360 3480 c-8 -5 -10 -10 -5 -10 6 0 17 5 25 10 8 5 11 10 5 10 -5
0 -17 -5 -25 -10z"/>
<path d="M7310 3460 c-8 -5 -10 -10 -5 -10 6 0 17 5 25 10 8 5 11 10 5 10 -5
0 -17 -5 -25 -10z"/>
<path d="M7120 3380 c-8 -5 -10 -10 -5 -10 6 0 17 5 25 10 8 5 11 10 5 10 -5
0 -17 -5 -25 -10z"/>
<path d="M7070 3360 c-8 -5 -10 -10 -5 -10 6 0 17 5 25 10 8 5 11 10 5 10 -5
0 -17 -5 -25 -10z"/>
<path d="M6880 3280 c-8 -5 -10 -10 -5 -10 6 0 17 5 25 10 8 5 11 10 5 10 -5
0 -17 -5 -25 -10z"/>
<path d="M6830 3260 c-8 -5 -10 -10 -5 -10 6 0 17 5 25 10 8 5 11 10 5 10 -5
0 -17 -5 -25 -10z"/>
<path d="M6640 3180 c-8 -5 -10 -10 -5 -10 6 0 17 5 25 10 8 5 11 10 5 10 -5
0 -17 -5 -25 -10z"/>
<path d="M6590 3160 c-8 -5 -10 -10 -5 -10 6 0 17 5 25 10 8 5 11 10 5 10 -5
0 -17 -5 -25 -10z"/>
<path d="M12168 2923 c7 -3 16 -2 19 1 4 3 -2 6 -13 5 -11 0 -14 -3 -6 -6z"/>
</g>
</svg>
