<svg xmlns="http://www.w3.org/2000/svg" viewBox="0 -0.5 108 66" shape-rendering="crispEdges">
<metadata>Made with Pixels to Svg https://codepen.io/shshaw/pen/XbxvNj</metadata>
<path stroke="#000000" d="M51 0h5M51 1h5M51 2h5M51 3h5M51 4h5M51 5h5M51 6h5M51 7h5M51 8h5M51 9h5M21 10h65M21 11h65M21 12h65M21 13h65M21 14h65M21 15h5M81 15h5M21 16h5M81 16h5M21 17h5M81 17h5M21 18h5M81 18h5M21 19h5M81 19h5M21 20h5M81 20h5M21 21h5M81 21h5M21 22h5M81 22h5M21 23h5M81 23h5M21 24h5M81 24h5M21 25h5M81 25h5M21 26h5M81 26h5M21 27h5M81 27h5M21 28h5M81 28h5M21 29h5M81 29h5M21 30h5M81 30h5M21 31h5M81 31h5M21 32h5M81 32h5M21 33h5M81 33h5M21 34h5M81 34h5M21 35h5M81 35h5M21 36h5M81 36h5M21 37h5M81 37h5M21 38h5M81 38h5M21 39h5M81 39h5M21 40h5M81 40h5M21 41h5M81 41h5M21 42h5M81 42h5M21 43h5M81 43h5M21 44h5M81 44h5M11 45h15M81 45h15M11 46h15M81 46h15M11 47h15M81 47h15M11 48h15M81 48h15M11 49h15M81 49h15M11 50h5M21 50h65M91 50h5M11 51h5M21 51h65M91 51h5M11 52h5M21 52h65M91 52h5M11 53h5M21 53h65M91 53h5M11 54h5M21 54h65M91 54h5M6 55h10M36 55h5M51 55h5M66 55h5M91 55h10M6 56h10M36 56h5M51 56h5M66 56h5M91 56h10M6 57h10M36 57h5M51 57h5M66 57h5M91 57h10M6 58h10M36 58h5M51 58h5M66 58h5M91 58h10M6 59h10M36 59h5M51 59h5M66 59h5M91 59h10M1 60h15M31 60h15M51 60h5M61 60h15M91 60h15M1 61h15M31 61h15M51 61h5M61 61h15M91 61h15M1 62h15M31 62h15M51 62h5M61 62h15M91 62h15M1 63h15M31 63h15M51 63h5M61 63h15M91 63h15M1 64h15M31 64h15M51 64h5M61 64h15M91 64h15" />
<path stroke="#ed1c24" d="M26 15h55M26 16h55M26 17h55M26 18h55M26 19h55M26 20h25M56 20h25M26 21h25M56 21h25M26 22h25M56 22h25M26 23h25M56 23h25M26 24h25M56 24h25M26 25h15M66 25h15M26 26h15M66 26h15M26 27h15M66 27h15M26 28h15M66 28h15M26 29h15M66 29h15M26 30h20M61 30h20M26 31h20M61 31h20M26 32h20M61 32h20M26 33h20M61 33h20M26 34h20M61 34h20M26 35h15M46 35h15M66 35h15M26 36h15M46 36h15M66 36h15M26 37h15M46 37h15M66 37h15M26 38h15M46 38h15M66 38h15M26 39h15M46 39h15M66 39h15M26 40h55M26 41h55M26 42h55M26 43h55M26 44h55M26 45h55M26 46h55M26 47h55M26 48h55M26 49h55" />
<path stroke="#fff200" d="M51 20h5M51 21h5M51 22h5M51 23h5M51 24h5M41 25h25M41 26h25M41 27h25M41 28h25M41 29h25M46 30h15M46 31h15M46 32h15M46 33h15M46 34h15M41 35h5M61 35h5M41 36h5M61 36h5M41 37h5M61 37h5M41 38h5M61 38h5M41 39h5M61 39h5" />
</svg>